<svg xmlns="http://www.w3.org/2000/svg" viewBox="0 0 16 16" width="16" height="16" fill="currentColor" shape-rendering="crispEdges" role="img" aria-label="inklift">
  <rect x="4" y="1" width="5" height="1"/>
  <rect x="3" y="2" width="2" height="1"/>
  <rect x="8" y="2" width="3" height="1"/>
  <rect x="2" y="3" width="2" height="1"/>
  <rect x="10" y="3" width="2" height="1"/>
  <rect x="2" y="4" width="2" height="1"/>
  <rect x="10" y="4" width="2" height="1"/>
  <rect x="2" y="5" width="2" height="1"/>
  <rect x="10" y="5" width="2" height="1"/>
  <rect x="3" y="6" width="2" height="1"/>
  <rect x="9" y="6" width="2" height="1"/>
  <rect x="4" y="7" width="5" height="1"/>
  <rect x="5" y="8" width="3" height="1"/>
  <rect x="5" y="9" width="3" height="1"/>
  <rect x="5" y="10" width="3" height="1"/>
  <rect x="12" y="10" width="2" height="1"/>
  <rect x="5" y="11" width="10" height="1"/>
  <rect x="6" y="12" width="7" height="1"/>
  <rect x="2" y="14" width="12" height="1"/>
</svg>
